<svg width="203" height="76" viewBox="0 0 203 76" fill="none" xmlns="http://www.w3.org/2000/svg">
<g clip-path="url(#clip0_202_9)">
<path d="M0.28418 75.0001V5.18188H29.1251C34.3524 5.18188 38.8637 6.2046 42.6592 8.25006C46.4774 10.2728 49.4206 13.1024 51.4887 16.7387C53.5569 20.3524 54.591 24.5569 54.591 29.3524C54.591 34.1706 53.5342 38.3865 51.4206 42.0001C49.3296 45.591 46.341 48.3751 42.4546 50.3524C38.5683 52.3296 33.9546 53.3183 28.6137 53.3183H10.8183V40.0228H25.4774C28.0228 40.0228 30.1478 39.5796 31.8524 38.6933C33.5796 37.8069 34.8865 36.5683 35.7728 34.9774C36.6592 33.3637 37.1024 31.4887 37.1024 29.3524C37.1024 27.1933 36.6592 25.3296 35.7728 23.7615C34.8865 22.1706 33.5796 20.9433 31.8524 20.0796C30.1251 19.216 28.0001 18.7842 25.4774 18.7842H17.1592V75.0001H0.28418Z" fill="url(#paint0_linear_202_9)"/>
<path d="M43.2842 74.9999V22.6363H59.4774V32.1817H60.0228C60.9774 28.7272 62.5342 26.159 64.6933 24.4772C66.8524 22.7726 69.3637 21.9204 72.2274 21.9204C73.0001 21.9204 73.7956 21.9772 74.6137 22.0908C75.4319 22.1817 76.1933 22.3294 76.8978 22.534V37.0226C76.1024 36.7499 75.0569 36.534 73.7615 36.3749C72.4887 36.2158 71.3524 36.1363 70.3524 36.1363C68.3751 36.1363 66.591 36.5794 65.0001 37.4658C63.4319 38.3294 62.1933 39.5454 61.2842 41.1135C60.3978 42.659 59.9546 44.4772 59.9546 46.5681V74.9999H43.2842Z" fill="url(#paint1_linear_202_9)"/>
<path d="M75.2842 74.9999V22.6363H91.9546V74.9999H75.2842ZM83.6365 16.534C81.2956 16.534 79.2842 15.7613 77.6024 14.2158C75.9206 12.6476 75.0796 10.7613 75.0796 8.55671C75.0796 6.37489 75.9206 4.51125 77.6024 2.9658C79.2842 1.39761 81.2956 0.613525 83.6365 0.613525C86.0001 0.613525 88.0115 1.39761 89.6706 2.9658C91.3524 4.51125 92.1933 6.37489 92.1933 8.55671C92.1933 10.7613 91.3524 12.6476 89.6706 14.2158C88.0115 15.7613 86.0001 16.534 83.6365 16.534Z" fill="url(#paint2_linear_202_9)"/>
<path d="M113.761 75.9887C108.284 75.9887 103.557 74.9092 99.5795 72.7501C95.625 70.5683 92.5795 67.466 90.4432 63.4433C88.3295 59.3978 87.2727 54.591 87.2727 49.0228C87.2727 43.6137 88.3409 38.8865 90.4773 34.841C92.6136 30.7728 95.625 27.6137 99.5114 25.3637C103.398 23.091 107.977 21.9546 113.25 21.9546C116.977 21.9546 120.386 22.5342 123.477 23.6933C126.568 24.8524 129.239 26.5683 131.489 28.841C133.739 31.1137 135.489 33.9206 136.739 37.2615C137.989 40.5796 138.614 44.3865 138.614 48.6819V52.841H93.1023V43.1592H123.102C123.08 41.3865 122.659 39.8069 121.841 38.4206C121.023 37.0342 119.898 35.9546 118.466 35.1819C117.057 34.3865 115.432 33.9887 113.591 33.9887C111.727 33.9887 110.057 34.4092 108.58 35.2501C107.102 36.0683 105.932 37.1933 105.068 38.6251C104.205 40.0342 103.75 41.6365 103.705 43.4319V53.2842C103.705 55.4206 104.125 57.2956 104.966 58.9092C105.807 60.5001 107 61.7387 108.545 62.6251C110.091 63.5115 111.932 63.9546 114.068 63.9546C115.545 63.9546 116.886 63.7501 118.091 63.341C119.295 62.9319 120.33 62.3296 121.193 61.5342C122.057 60.7387 122.705 59.7615 123.136 58.6024L138.443 59.0456C137.807 62.4774 136.409 65.466 134.25 68.0115C132.114 70.5342 129.307 72.5001 125.83 73.9092C122.352 75.2956 118.33 75.9887 113.761 75.9887Z" fill="url(#paint3_linear_202_9)"/>
<path d="M124.284 75.0001V22.6365H140.136V32.2501H140.716C141.807 29.0683 143.648 26.5569 146.239 24.716C148.83 22.8751 151.92 21.9546 155.511 21.9546C159.148 21.9546 162.261 22.8865 164.852 24.7501C167.443 26.6137 169.091 29.1137 169.795 32.2501H170.341C171.318 29.1365 173.227 26.6478 176.068 24.7842C178.909 22.8978 182.261 21.9546 186.125 21.9546C191.08 21.9546 195.102 23.5456 198.193 26.7274C201.284 29.8865 202.83 34.2274 202.83 39.7501V75.0001H186.159V43.5683C186.159 40.9546 185.489 38.966 184.148 37.6024C182.807 36.216 181.068 35.5228 178.932 35.5228C176.636 35.5228 174.83 36.2728 173.511 37.7728C172.216 39.2501 171.568 41.2387 171.568 43.7387V75.0001H155.545V43.3978C155.545 40.966 154.886 39.0456 153.568 37.6365C152.25 36.2274 150.511 35.5228 148.352 35.5228C146.898 35.5228 145.614 35.8751 144.5 36.5796C143.386 37.2615 142.511 38.2387 141.875 39.5115C141.261 40.7842 140.955 42.2842 140.955 44.0115V75.0001H124.284Z" fill="url(#paint4_linear_202_9)"/>
</g>
<defs>
<linearGradient id="paint0_linear_202_9" x1="-28.4999" y1="14.0001" x2="80.5001" y2="65.5001" gradientUnits="userSpaceOnUse">
<stop stop-color="#0D6EFD"/>
<stop offset="1" stop-color="#134FA8"/>
</linearGradient>
<linearGradient id="paint1_linear_202_9" x1="24.5001" y1="21.9999" x2="85.0001" y2="46.4999" gradientUnits="userSpaceOnUse">
<stop stop-color="#0D6EFD"/>
<stop offset="1" stop-color="#134FA8"/>
</linearGradient>
<linearGradient id="paint2_linear_202_9" x1="58.5001" y1="32.4999" x2="103" y2="39.9999" gradientUnits="userSpaceOnUse">
<stop stop-color="#0D6EFD"/>
<stop offset="1" stop-color="#134FA8"/>
</linearGradient>
<linearGradient id="paint3_linear_202_9" x1="72" y1="40.0001" x2="132" y2="52.0001" gradientUnits="userSpaceOnUse">
<stop stop-color="#0D6EFD"/>
<stop offset="1" stop-color="#134FA8"/>
</linearGradient>
<linearGradient id="paint4_linear_202_9" x1="87.9999" y1="4.00009" x2="199" y2="64.5001" gradientUnits="userSpaceOnUse">
<stop stop-color="#0D6EFD"/>
<stop offset="1" stop-color="#134FA8"/>
</linearGradient>
<clipPath id="clip0_202_9">
<rect width="203" height="76" fill="white"/>
</clipPath>
</defs>
</svg>
